{"title":"Sweet Auditions - MILF Nina used and abused","uid":10792119,"size":266850205,"categoryP":"porn","categoryS":"movie_clips","magnet":"?xt=urn:btih:2dcc5cb0079d25fa1bf471e7f9540bddcc336e6f&amp;dn=Sweet+Auditions+-+MILF+Nina+used+and+abused&amp;tr=udp%3A%2F%2Ftracker.openbittorrent.com%3A80&amp;tr=udp%3A%2F%2Fopen.demonii.com%3A1337&amp;tr=udp%3A%2F%2Ftracker.coppersurfer.tk%3A6969&amp;tr=udp%3A%2F%2Fexodus.desync.com%3A6969","seeders":4,"leechers":1,"uploader":"ThousandPeers","files":21,"time":1408259630,"description":"Format                                   : Windows Media\nFile size                                : 222 MiB\nDuration                                 : 57mn 35s\nOverall bit rate mode                    : Variable\nOverall bit rate                         : 540 Kbps\nMaximum Overall bit rate                 : 751 Kbps\nEncoded date                             : UTC 2011-09-13 14:13:27.654\nWriting application                      :  6.0.6000.16386 / Windows Movie Maker\nApplication                              : Windows Movie Maker 6.0.6000.16386\n\n\nVideo\n\nID                                       : 2\nFormat                                   : VC-1\nFormat profile                           : MP@ML\nCodec ID                                 : WMV3\nCodec ID/Info                            : Windows Media Video 9\nCodec ID/Hint                            : WMV3\nDescription of the codec                 : Windows Media Video 9\nDuration                                 : 57mn 35s\nBit rate mode                            : Variable\nBit rate                                 : 431 Kbps\nWidth                                    : 384 pixels\nHeight                                   : 288 pixels\nDisplay aspect ratio                     : 4:3\nFrame rate                               : 25.000 fps\nBit depth                                : 8 bits\nScan type                                : Progressive\nCompression mode                         : Lossy\nBits/(Pixel*Frame)                       : 0.156\nStream size                              : 177 MiB (80%)\nLanguage                                 : English (US)\n\n\nAudio\n\nID                                       : 1\nFormat                                   : WMA\nFormat version                           : Version 2\nCodec ID                                 : 161\nCodec ID/Info                            : Windows Media Audio\nDescription of the codec                 : Windows Media Audio 9.2 - VBR Quality 90, 48 kHz, stereo 1-pass VBR\nDuration                                 : 57mn 35s\nBit rate mode                            : Variable\nBit rate                                 : 102 Kbps\nChannel(s)                               : 2 channels\nSampling rate                            : 48.0 KHz\nBit depth                                : 16 bits\nStream size                              : 42.2 MiB (19%)\nLanguage                                 : English (US)\n","torrent":{"xt":"urn:btih:2dcc5cb0079d25fa1bf471e7f9540bddcc336e6f","amp;dn":"Sweet+Auditions+-+MILF+Nina+used+and+abused","amp;tr":["udp%3A%2F%2Ftracker.openbittorrent.com%3A80","udp%3A%2F%2Fopen.demonii.com%3A1337","udp%3A%2F%2Ftracker.coppersurfer.tk%3A6969","udp%3A%2F%2Fexodus.desync.com%3A6969"],"infoHash":"2dcc5cb0079d25fa1bf471e7f9540bddcc336e6f","infoHashBuffer":{"type":"Buffer","data":[45,204,92,176,7,157,37,250,27,244,113,231,249,84,11,221,204,51,110,111]},"announce":[],"urlList":[]}}